<svg width="14" height="15" viewBox="0 0 14 15" fill="none" xmlns="http://www.w3.org/2000/svg">
<g clip-path="url(#clip0_228_324)">
<path d="M11.2241 3.5974C10.4619 3.24212 9.63676 2.98425 8.7772 2.83526C8.76967 2.83502 8.76217 2.83644 8.75524 2.83941C8.74831 2.84238 8.74212 2.84683 8.73709 2.85245C8.63395 3.04156 8.51361 3.28796 8.43338 3.47707C7.52168 3.33954 6.5945 3.33954 5.6828 3.47707C5.60257 3.28223 5.48223 3.04156 5.37336 2.85245C5.36763 2.84099 5.35043 2.83526 5.33324 2.83526C4.47369 2.98425 3.65424 3.24212 2.88637 3.5974C2.88064 3.5974 2.87491 3.60313 2.86918 3.60886C1.31051 5.94113 0.880733 8.21036 1.09276 10.4567C1.09276 10.4681 1.09849 10.4796 1.10995 10.4853C2.14142 11.2417 3.13278 11.7002 4.11267 12.0039C4.12986 12.0096 4.14705 12.0039 4.15278 11.9924C4.382 11.6772 4.58829 11.3449 4.76594 10.9953C4.7774 10.9724 4.76594 10.9495 4.74301 10.9438C4.41638 10.8177 4.10694 10.6687 3.80323 10.4968C3.78031 10.4853 3.78031 10.4509 3.7975 10.4338C3.86053 10.3879 3.92357 10.3363 3.9866 10.2905C3.99806 10.279 4.01525 10.279 4.02672 10.2848C5.99797 11.1844 8.12394 11.1844 10.0723 10.2848C10.0837 10.279 10.1009 10.279 10.1124 10.2905C10.1754 10.3421 10.2385 10.3879 10.3015 10.4395C10.3244 10.4567 10.3244 10.4911 10.2958 10.5025C9.99778 10.6802 9.68261 10.8234 9.35597 10.9495C9.33305 10.9552 9.32732 10.9839 9.33305 11.0011C9.51643 11.3506 9.72272 11.683 9.9462 11.9981C9.9634 12.0039 9.98059 12.0096 9.99778 12.0039C10.9834 11.7002 11.9748 11.2417 13.0062 10.4853C13.0177 10.4796 13.0234 10.4681 13.0234 10.4567C13.2756 7.86081 12.6051 5.60877 11.247 3.60886C11.2413 3.60313 11.2355 3.5974 11.2241 3.5974ZM5.06392 9.08711C4.47369 9.08711 3.98087 8.54273 3.98087 7.87227C3.98087 7.20182 4.46222 6.65743 5.06392 6.65743C5.67134 6.65743 6.15269 7.20755 6.14696 7.87227C6.14696 8.54273 5.66561 9.08711 5.06392 9.08711ZM9.05799 9.08711C8.46776 9.08711 7.97495 8.54273 7.97495 7.87227C7.97495 7.20182 8.4563 6.65743 9.05799 6.65743C9.66541 6.65743 10.1468 7.20755 10.141 7.87227C10.141 8.54273 9.66541 9.08711 9.05799 9.08711Z" fill="white"/>
</g>
<defs>
<clipPath id="clip0_228_324">
<rect width="13.7529" height="13.7529" fill="white" transform="translate(0.181641 0.543152)"/>
</clipPath>
</defs>
</svg>
