<svg width="15" height="14" viewBox="0 0 15 14" fill="none" xmlns="http://www.w3.org/2000/svg">
<path d="M7.62943 1.3147C4.46626 1.3147 1.89905 3.88191 1.89905 7.04508C1.89905 10.2083 4.46626 12.7755 7.62943 12.7755C10.7926 12.7755 13.3598 10.2083 13.3598 7.04508C13.3598 3.88191 10.7926 1.3147 7.62943 1.3147ZM7.62943 11.6294C5.10233 11.6294 3.04513 9.57218 3.04513 7.04508C3.04513 4.51798 5.10233 2.46077 7.62943 2.46077C10.1565 2.46077 12.2137 4.51798 12.2137 7.04508C12.2137 9.57218 10.1565 11.6294 7.62943 11.6294ZM4.47772 10.1968L8.78124 8.19689L10.7811 3.89337L6.47763 5.89328L4.47772 10.1968ZM7.62943 6.41474C7.97899 6.41474 8.25978 6.69553 8.25978 7.04508C8.25978 7.39464 7.97899 7.67543 7.62943 7.67543C7.27988 7.67543 6.99909 7.39464 6.99909 7.04508C6.99909 6.69553 7.27988 6.41474 7.62943 6.41474Z" fill="white"/>
</svg>
