<svg width="12" height="12" viewBox="0 0 12 12" fill="none" xmlns="http://www.w3.org/2000/svg">
<path fill-rule="evenodd" clip-rule="evenodd" d="M3.01131 0.146088C1.42891 0.146088 0.146118 1.42888 0.146118 3.01128V8.74167C0.146118 10.3241 1.42891 11.6069 3.01131 11.6069H8.7417C10.3241 11.6069 11.6069 10.3241 11.6069 8.74167V3.01128C11.6069 1.42888 10.3241 0.146088 8.7417 0.146088H3.01131ZM9.31469 3.01127C9.63117 3.01127 9.88773 2.75471 9.88773 2.43823C9.88773 2.12175 9.63117 1.86519 9.31469 1.86519C8.99821 1.86519 8.74166 2.12175 8.74166 2.43823C8.74166 2.75471 8.99821 3.01127 9.31469 3.01127ZM8.74166 5.87646C8.74166 7.45887 7.45887 8.74166 5.87646 8.74166C4.29406 8.74166 3.01127 7.45887 3.01127 5.87646C3.01127 4.29406 4.29406 3.01127 5.87646 3.01127C7.45887 3.01127 8.74166 4.29406 8.74166 5.87646ZM5.87646 7.59558C6.8259 7.59558 7.59558 6.8259 7.59558 5.87646C7.59558 4.92702 6.8259 4.15735 5.87646 4.15735C4.92702 4.15735 4.15735 4.92702 4.15735 5.87646C4.15735 6.8259 4.92702 7.59558 5.87646 7.59558Z" fill="white"/>
</svg>
